HIERARCHY
ROOT Hips
{
	OFFSET 55.117599 7.221611 58.177898
	CHANNELS 6 Xposition Yposition Zposition Xrotation Yrotation Zrotation
	JOINT spine
	{
		OFFSET 0.000000 -0.393701 6.846371
		CHANNELS 3 Xrotation Yrotation Zrotation
		JOINT spine1
		{
			OFFSET 0.000000 -0.000001 9.496208
			CHANNELS 3 Xrotation Yrotation Zrotation
			JOINT spine2
			{
				OFFSET 0.000000 -0.000002 9.099091
				CHANNELS 3 Xrotation Yrotation Zrotation
				JOINT Neck
				{
					OFFSET 0.000000 -1.113784 23.361198
					CHANNELS 3 Xrotation Yrotation Zrotation
					JOINT Head
					{
						OFFSET 0.000000 -0.000001 7.058022
						CHANNELS 3 Xrotation Yrotation Zrotation
						End Site
						{
							OFFSET 0.000000 5.634178 17.084396
						}
					}
				}
				JOINT RightShoulder
				{
					OFFSET -3.831360 0.533490 9.826309
					CHANNELS 3 Xrotation Yrotation Zrotation
					JOINT RightArm
					{
						OFFSET 0.000000 -0.000002 12.888100
						CHANNELS 3 Xrotation Yrotation Zrotation
						JOINT RightArmRoll
						{
							OFFSET 0.000000 -0.000001 6.506172
							CHANNELS 3 Xrotation Yrotation Zrotation
							JOINT RightForeArm
							{
								OFFSET 0.000000 -0.000003 18.950104
								CHANNELS 3 Xrotation Yrotation Zrotation
								JOINT RightForeArmRoll
								{
									OFFSET 0.000000 -0.000001 7.300934
									CHANNELS 3 Xrotation Yrotation Zrotation
									JOINT RightHand
									{
										OFFSET 0.000000 -0.000002 14.651398
										CHANNELS 3 Xrotation Yrotation Zrotation
										End Site
										{
											OFFSET 0.000000 0.000000 0.100006
										}
									}
								}
							}
						}
					}
				}
				JOINT LeftShoulder
				{
					OFFSET 3.831360 0.533490 9.826309
					CHANNELS 3 Xrotation Yrotation Zrotation
					JOINT LeftArm
					{
						OFFSET 0.000000 -0.000002 12.888100
						CHANNELS 3 Xrotation Yrotation Zrotation
						JOINT LeftArmRoll
						{
							OFFSET 0.000000 -0.000001 6.506172
							CHANNELS 3 Xrotation Yrotation Zrotation
							JOINT LeftForeArm
							{
								OFFSET 0.000000 -0.000003 18.950104
								CHANNELS 3 Xrotation Yrotation Zrotation
								JOINT LeftForeArmRoll
								{
									OFFSET 0.000000 -0.000001 7.300919
									CHANNELS 3 Xrotation Yrotation Zrotation
									JOINT LeftHand
									{
										OFFSET 0.000000 -0.000002 14.651398
										CHANNELS 3 Xrotation Yrotation Zrotation
										End Site
										{
											OFFSET 0.000000 0.000000 0.100006
										}
									}
								}
							}
						}
					}
				}
			}
		}
	}
	JOINT RightUpLeg
	{
		OFFSET -6.068371 0.933477 -1.112782
		CHANNELS 3 Xrotation Yrotation Zrotation
		JOINT RightUpLegRoll
		{
			OFFSET 0.000000 -0.000003 17.179604
			CHANNELS 3 Xrotation Yrotation Zrotation
			JOINT RightLeg
			{
				OFFSET 0.000000 0.000004 -21.274300
				CHANNELS 3 Xrotation Yrotation Zrotation
				JOINT RightLegRoll
				{
					OFFSET 0.000000 -0.000004 21.343903
					CHANNELS 3 Xrotation Yrotation Zrotation
					JOINT RightFoot
					{
						OFFSET 0.000000 -0.000003 17.765198
						CHANNELS 3 Xrotation Yrotation Zrotation
						JOINT RightToeBase
						{
							OFFSET 0.000000 -0.000002 14.850800
							CHANNELS 3 Xrotation Yrotation Zrotation
							End Site
							{
								OFFSET 0.006294 0.829003 7.192139
							}
						}
					}
				}
			}
		}
	}
	JOINT LeftUpLeg
	{
		OFFSET 6.068371 0.933477 -1.112782
		CHANNELS 3 Xrotation Yrotation Zrotation
		JOINT LeftUpLegRoll
		{
			OFFSET 0.000000 -0.000003 17.179703
			CHANNELS 3 Xrotation Yrotation Zrotation
			JOINT LeftLeg
			{
				OFFSET 0.000000 -0.000003 21.274200
				CHANNELS 3 Xrotation Yrotation Zrotation
				JOINT LeftLegRoll
				{
					OFFSET 0.000000 -0.000004 21.541199
					CHANNELS 3 Xrotation Yrotation Zrotation
					JOINT LeftFoot
					{
						OFFSET 0.000000 -0.000003 17.567894
						CHANNELS 3 Xrotation Yrotation Zrotation
						JOINT LeftToeBase
						{
							OFFSET 0.000000 -0.000003 14.850800
							CHANNELS 3 Xrotation Yrotation Zrotation
							End Site
							{
								OFFSET -0.028210 0.829004 7.192139
							}
						}
					}
				}
			}
		}
	}
}
MOTION
Frames: 6
Frame Time: 0.041667
57.085094 -5.470259 72.365601 39.627487 -5.845617 -8.813064 2.567188 -0.878622 0.648100 9.148296 -1.715681 1.345668 10.793511 -1.699451 1.366177 43.094505 -7.769877 -2.511913 -1.479818 -7.514745 -3.370196 -6.740014 -36.156928 -5.788763 -44.100564 -122.950973 -95.058256 0.000001 -0.000002 -0.000004 71.500585 -7.440071 4.335985 -0.000008 0.000000 -2.999998 -4.999602 -7.998773 -0.000037 -1.730895 32.246508 -1.605402 -50.374906 149.963251 74.316543 -0.000003 0.000000 0.000007 8.126387 35.649213 -4.740219 0.000005 -0.000007 2.999990 -5.000208 7.999305 -0.000113 -97.184077 -175.489854 0.733433 179.999991 -0.000004 -0.344004 127.517214 -7.371362 -5.537461 -0.000002 -0.000004 1.005540 67.818273 7.086265 1.720903 25.456854 -7.355628 -0.000008 -97.411120 160.144631 -0.888602 -0.000002 -0.000003 -0.201550 -59.813421 8.982146 7.388809 -0.000004 0.000004 -0.742303 70.082030 -7.139954 -1.395074 25.456959 7.355614 -0.000001 
57.045399 -5.401529 72.271591 39.603500 -5.784881 -8.728993 2.561407 -0.877312 0.646843 9.136689 -1.713635 1.342371 10.781894 -1.697433 1.362846 43.085571 -7.781162 -2.506859 -1.446358 -7.513247 -3.364669 -6.786514 -36.097512 -5.845354 -43.967342 -122.994659 -94.972168 -0.000001 0.000002 -0.000003 71.531205 -7.436804 4.335267 -0.000012 0.000002 -3.000000 -4.999603 -7.998773 -0.000036 -1.787288 32.161547 -1.541577 -50.287917 149.946531 74.412896 -0.000005 -0.000002 0.000009 8.317581 35.728221 -4.824854 0.000005 -0.000006 2.999990 -5.000205 7.999301 -0.000113 -97.302554 -175.444023 0.759816 180.000005 -0.000003 -0.345002 127.364887 -7.378544 -5.558959 -0.000000 -0.000004 1.009659 67.813813 7.088182 1.716366 25.456856 -7.355628 -0.000010 -97.543243 160.118663 -0.905621 -0.000006 -0.000005 -0.201768 -59.922042 8.973704 7.404606 -0.000004 0.000004 -0.745432 70.075774 -7.141283 -1.392309 25.456957 7.355615 -0.000000 
57.012596 -5.330666 72.181396 39.579088 -5.724342 -8.644864 2.555560 -0.876037 0.645470 9.124947 -1.711695 1.338879 10.770171 -1.695546 1.359327 43.075073 -7.790571 -2.502284 -1.412831 -7.513804 -3.359047 -6.832805 -36.038404 -5.901742 -43.835437 -123.038973 -94.886675 0.000001 0.000000 -0.000005 71.560821 -7.433433 4.334587 -0.000009 0.000002 -2.999998 -4.999605 -7.998771 -0.000037 -1.842513 32.079766 -1.478807 -50.203403 149.928622 74.510404 -0.000002 -0.000000 0.000008 8.506348 35.806573 -4.909179 0.000006 -0.000010 2.999989 -5.000207 7.999308 -0.000113 -97.422103 -175.397946 0.786448 179.999991 -0.000004 -0.346995 127.211481 -7.384648 -5.580918 -0.000001 -0.000004 1.013680 67.810603 7.090134 1.711657 25.456851 -7.355628 -0.000009 -97.674806 160.094375 -0.923485 -0.000006 -0.000004 -0.202018 -60.030314 8.964337 7.419802 -0.000004 0.000004 -0.748679 70.069278 -7.142541 -1.389649 25.456952 7.355614 -0.000000 
56.976997 -5.262885 72.089798 39.554261 -5.664083 -8.560898 2.549626 -0.874799 0.643989 9.113049 -1.709878 1.335224 10.758263 -1.693766 1.355644 43.063171 -7.796963 -2.498443 -1.379187 -7.517499 -3.353203 -6.878536 -35.979415 -5.957411 -43.704444 -123.083724 -94.801236 -0.000003 0.000003 -0.000004 71.589269 -7.429831 4.333669 -0.000009 0.000001 -3.000002 -4.999600 -7.998773 -0.000034 -1.896405 32.002097 -1.417204 -50.121653 149.909675 74.607987 -0.000003 -0.000000 0.000009 8.691335 35.884284 -4.992718 0.000006 -0.000009 2.999992 -5.000205 7.999304 -0.000113 -97.543209 -175.351638 0.810502 179.999991 -0.000007 -0.349005 127.056408 -7.389586 -5.601386 -0.000002 -0.000005 1.017560 67.808814 7.092158 1.706671 25.456853 -7.355629 -0.000008 -97.805782 160.071808 -0.940114 -0.000005 -0.000004 -0.202306 -60.138347 8.954027 7.434485 -0.000004 0.000004 -0.752070 70.062475 -7.143790 -1.387007 25.456955 7.355614 -0.000000 
56.946095 -5.188930 72.003502 39.529016 -5.604172 -8.477032 2.543606 -0.873598 0.642408 9.100959 -1.708183 1.331444 10.746145 -1.692114 1.351839 43.050051 -7.799355 -2.495456 -1.345382 -7.525388 -3.347022 -6.923317 -35.920173 -6.011819 -43.574100 -123.128817 -94.715121 0.000002 0.000000 -0.000004 71.616733 -7.425893 4.332440 -0.000011 0.000002 -2.999998 -4.999602 -7.998772 -0.000042 -1.948806 31.929324 -1.356873 -50.043324 149.889102 74.705945 -0.000004 -0.000001 0.000011 8.871052 35.960758 -5.074852 0.000005 -0.000006 2.999989 -5.000205 7.999302 -0.000113 -97.666248 -175.305138 0.833362 179.999991 -0.000005 -0.350001 126.899136 -7.393890 -5.622224 -0.000002 -0.000004 1.021299 67.808711 7.094252 1.701388 25.456853 -7.355629 -0.000009 -97.936156 160.051140 -0.956327 -0.000006 -0.000006 -0.202637 -60.246011 8.942710 7.448501 -0.000004 0.000004 -0.755632 70.055119 -7.145031 -1.384501 25.456957 7.355613 -0.000000 
56.908096 -5.120608 71.909798 39.503359 -5.544718 -8.393587 2.537465 -0.872437 0.640737 9.088634 -1.706606 1.327574 10.733834 -1.690592 1.347944 43.035980 -7.796738 -2.493444 -1.311335 -7.538570 -3.340379 -6.966810 -35.860474 -6.064454 -43.443767 -123.173951 -94.627422 0.000001 0.000002 -0.000005 71.643241 -7.421503 4.330815 -0.000011 0.000002 -2.999998 -4.999604 -7.998774 -0.000038 -1.999570 31.862156 -1.297878 -49.968462 149.867820 74.802627 -0.000003 -0.000000 0.000010 9.044104 36.035965 -5.155052 0.000005 -0.000006 2.999993 -5.000207 7.999304 -0.000112 -97.791602 -175.258515 0.854827 179.999991 -0.000006 -0.351995 126.739419 -7.396889 -5.642684 -0.000001 -0.000004 1.024881 67.810535 7.096466 1.695706 25.456957 -7.355624 0.000004 -98.065882 160.032575 -0.972954 -0.000004 -0.000004 -0.203016 -60.353382 8.930323 7.461843 -0.000004 0.000004 -0.759391 70.047435 -7.146233 -1.381907 25.456955 7.355614 -0.000001 
